<?xml version="1.0" encoding="utf-8"?>
<!-- Generator: Adobe Illustrator 27.5.0, SVG Export Plug-In . SVG Version: 6.00 Build 0)  -->
<svg version="1.1" xmlns="http://www.w3.org/2000/svg" xmlns:xlink="http://www.w3.org/1999/xlink" x="0px" y="0px"
	 viewBox="0 0 500 500" style="enable-background:new 0 0 500 500;" xml:space="preserve">
<g id="Background_Complete">
	<g>
		<g>
			<rect y="382.398" style="fill:#EBEBEB;" width="500" height="0.25"/>
			<rect x="416.779" y="398.494" style="fill:#EBEBEB;" width="33.122" height="0.25"/>
			<rect x="322.527" y="401.208" style="fill:#EBEBEB;" width="8.693" height="0.25"/>
			<rect x="396.586" y="389.208" style="fill:#EBEBEB;" width="19.192" height="0.25"/>
			<rect x="52.459" y="390.888" style="fill:#EBEBEB;" width="43.193" height="0.25"/>
			<rect x="104.556" y="390.888" style="fill:#EBEBEB;" width="6.333" height="0.25"/>
			<rect x="131.471" y="395.111" style="fill:#EBEBEB;" width="93.676" height="0.25"/>
			<path style="fill:#EBEBEB;" d="M237.014,337.8H43.915c-3.147,0-5.708-2.561-5.708-5.708V60.66c0-3.147,2.561-5.708,5.708-5.708
				h193.099c3.146,0,5.707,2.561,5.707,5.708v271.432C242.721,335.239,240.16,337.8,237.014,337.8z M43.915,55.203
				c-3.01,0-5.458,2.448-5.458,5.458v271.432c0,3.01,2.448,5.458,5.458,5.458h193.099c3.009,0,5.457-2.448,5.457-5.458V60.66
				c0-3.009-2.448-5.458-5.457-5.458H43.915z"/>
			<path style="fill:#EBEBEB;" d="M453.31,337.8H260.212c-3.147,0-5.707-2.561-5.707-5.708V60.66c0-3.147,2.561-5.708,5.707-5.708
				H453.31c3.148,0,5.708,2.561,5.708,5.708v271.432C459.019,335.239,456.458,337.8,453.31,337.8z M260.212,55.203
				c-3.009,0-5.457,2.448-5.457,5.458v271.432c0,3.01,2.448,5.458,5.457,5.458H453.31c3.01,0,5.458-2.448,5.458-5.458V60.66
				c0-3.009-2.448-5.458-5.458-5.458H260.212z"/>
		</g>
		<g>
			<rect x="55.213" y="91.653" style="fill:#E6E6E6;" width="378.773" height="132.278"/>
			<rect x="57.583" y="91.653" style="fill:#F0F0F0;" width="381.475" height="132.278"/>
			<rect x="55.213" y="223.931" style="fill:#E6E6E6;" width="378.773" height="4.713"/>
			<rect x="60.623" y="223.931" style="fill:#F0F0F0;" width="381.475" height="4.713"/>
			
				<rect x="189.283" y="-25.845" transform="matrix(-1.836970e-16 1 -1 -1.836970e-16 406.1129 -90.5292)" style="fill:#FAFAFA;" width="118.076" height="367.273"/>
			<polygon style="fill:#FFFFFF;" points="298.259,216.83 309.631,98.754 329.306,98.754 317.934,216.83 			"/>
			<polygon style="fill:#FFFFFF;" points="182.118,216.83 193.489,98.754 213.164,98.754 201.792,216.83 			"/>
			<path style="fill:#F0F0F0;" d="M69.523,197.852c-0.386,0-0.698-0.313-0.698-0.698v-93.625c0-0.385,0.312-0.698,0.698-0.698
				c0.386,0,0.698,0.313,0.698,0.698v93.625C70.22,197.54,69.908,197.852,69.523,197.852z"/>
			<polygon style="fill:#FFFFFF;" points="322.16,216.83 333.532,98.754 341.202,98.754 329.831,216.83 			"/>
			
				<rect x="372.469" y="157.341" transform="matrix(-1.836970e-16 1 -1 -1.836970e-16 589.2986 -273.7149)" style="fill:#E6E6E6;" width="118.076" height="0.902"/>
			<polygon style="opacity:0.5;fill:#E0E0E0;" points="440.738,107.308 61.965,107.308 61.311,101.514 440.085,101.514 			"/>
			<polygon style="opacity:0.5;fill:#E0E0E0;" points="440.738,116.831 61.965,116.831 61.311,111.038 440.085,111.038 			"/>
			<polygon style="opacity:0.5;fill:#E0E0E0;" points="440.738,126.355 61.965,126.355 61.311,120.561 440.085,120.561 			"/>
			<polygon style="opacity:0.5;fill:#E0E0E0;" points="440.738,135.878 61.965,135.878 61.311,130.085 440.085,130.085 			"/>
			<polygon style="opacity:0.5;fill:#E0E0E0;" points="440.738,145.402 61.965,145.402 61.311,139.608 440.085,139.608 			"/>
			<polygon style="opacity:0.5;fill:#E0E0E0;" points="440.738,154.925 61.965,154.925 61.311,149.132 440.085,149.132 			"/>
		</g>
		<g>
			<g>
				<path style="fill:#EBEBEB;" d="M293.185,341.763h56.966c1.856,0,3.375-1.519,3.375-3.375l0,0c0-1.856-1.519-3.375-3.375-3.375
					h-56.966c-1.856,0-3.375,1.519-3.375,3.375l0,0C289.811,340.245,291.329,341.763,293.185,341.763z"/>
				<g>
					<polygon style="fill:#E0E0E0;" points="358.833,335.014 360.728,335.014 367.96,287.837 366.064,287.837 					"/>
					<polygon style="fill:#E0E0E0;" points="329.906,335.014 331.802,335.014 339.033,287.837 337.138,287.837 					"/>
					<path style="fill:#EBEBEB;" d="M329.825,325.533h37.145c2.47,0,4.781-2.021,5.137-4.49l5.673-39.391
						c0.356-2.47-1.374-4.49-3.844-4.49h-37.145c-2.47,0-4.781,2.021-5.137,4.49l-5.673,39.391
						C325.626,323.512,327.356,325.533,329.825,325.533z"/>
				</g>
				<g>
					<path style="fill:#F5F5F5;" d="M335.321,341.763h26.067c1.856,0,3.375-1.519,3.375-3.375l0,0c0-1.856-1.519-3.375-3.375-3.375
						h-26.067c-1.856,0-3.375,1.519-3.375,3.375l0,0C331.946,340.245,333.465,341.763,335.321,341.763z"/>
				</g>
				<polygon style="fill:#E0E0E0;" points="321.132,382.398 323.027,382.398 330.259,341.763 328.363,341.763 				"/>
				<polygon style="fill:#E0E0E0;" points="288.268,382.398 290.164,382.398 297.395,341.763 295.5,341.763 				"/>
				<polygon style="fill:#E0E0E0;" points="333.854,382.398 331.959,382.398 324.728,341.763 326.623,341.763 				"/>
				<polygon style="fill:#E0E0E0;" points="366.718,382.398 364.822,382.398 357.591,341.763 359.486,341.763 				"/>
			</g>
		</g>
		<g>
			<g>
				<path style="fill:#EBEBEB;" d="M123.915,341.763H66.949c-1.856,0-3.375-1.519-3.375-3.375l0,0c0-1.856,1.519-3.375,3.375-3.375
					h56.966c1.856,0,3.375,1.519,3.375,3.375l0,0C127.29,340.245,125.771,341.763,123.915,341.763z"/>
				<g>
					<polygon style="fill:#E0E0E0;" points="58.268,335.014 56.373,335.014 49.141,287.837 51.036,287.837 					"/>
					<polygon style="fill:#E0E0E0;" points="87.194,335.014 85.299,335.014 78.067,287.837 79.962,287.837 					"/>
					<path style="fill:#EBEBEB;" d="M87.275,325.533H50.13c-2.47,0-4.781-2.021-5.137-4.49l-5.673-39.391
						c-0.356-2.47,1.374-4.49,3.844-4.49h37.145c2.47,0,4.781,2.021,5.137,4.49l5.673,39.391
						C91.475,323.512,89.745,325.533,87.275,325.533z"/>
				</g>
				<g>
					<path style="fill:#F5F5F5;" d="M81.78,341.763H55.713c-1.856,0-3.375-1.519-3.375-3.375l0,0c0-1.856,1.519-3.375,3.375-3.375
						H81.78c1.856,0,3.375,1.519,3.375,3.375l0,0C85.154,340.245,83.636,341.763,81.78,341.763z"/>
				</g>
				<polygon style="fill:#E0E0E0;" points="95.969,382.398 94.073,382.398 86.842,341.763 88.737,341.763 				"/>
				<polygon style="fill:#E0E0E0;" points="128.832,382.398 126.937,382.398 119.705,341.763 121.601,341.763 				"/>
				<polygon style="fill:#E0E0E0;" points="83.246,382.398 85.142,382.398 92.373,341.763 90.478,341.763 				"/>
				<polygon style="fill:#E0E0E0;" points="50.383,382.398 52.278,382.398 59.51,341.763 57.614,341.763 				"/>
			</g>
		</g>
		<g>
			<g>
				<path style="fill:#EBEBEB;" d="M354.931,341.763h-56.966c-1.856,0-3.375-1.519-3.375-3.375l0,0c0-1.856,1.519-3.375,3.375-3.375
					h56.966c1.856,0,3.375,1.519,3.375,3.375l0,0C358.306,340.245,356.787,341.763,354.931,341.763z"/>
				<g>
					<polygon style="fill:#E0E0E0;" points="289.284,335.014 287.388,335.014 280.157,287.837 282.052,287.837 					"/>
					<polygon style="fill:#E0E0E0;" points="318.21,335.014 316.315,335.014 309.083,287.837 310.978,287.837 					"/>
					<path style="fill:#EBEBEB;" d="M318.291,325.533h-37.145c-2.47,0-4.781-2.021-5.137-4.49l-5.673-39.391
						c-0.356-2.47,1.374-4.49,3.844-4.49h37.145c2.47,0,4.781,2.021,5.137,4.49l5.673,39.391
						C322.491,323.512,320.761,325.533,318.291,325.533z"/>
				</g>
				<g>
					<path style="fill:#F5F5F5;" d="M312.796,341.763h-26.067c-1.856,0-3.375-1.519-3.375-3.375l0,0
						c0-1.856,1.519-3.375,3.375-3.375h26.067c1.856,0,3.375,1.519,3.375,3.375l0,0
						C316.171,340.245,314.652,341.763,312.796,341.763z"/>
				</g>
				<polygon style="fill:#E0E0E0;" points="326.985,382.398 325.089,382.398 317.858,341.763 319.753,341.763 				"/>
				<polygon style="fill:#E0E0E0;" points="359.848,382.398 357.953,382.398 350.721,341.763 352.616,341.763 				"/>
				<polygon style="fill:#E0E0E0;" points="314.262,382.398 316.158,382.398 323.389,341.763 321.494,341.763 				"/>
				<polygon style="fill:#E0E0E0;" points="281.399,382.398 283.294,382.398 290.526,341.763 288.63,341.763 				"/>
			</g>
		</g>
		<g>
			<g>
				<path style="fill:#EBEBEB;" d="M378.558,341.763h56.966c1.856,0,3.375-1.519,3.375-3.375l0,0c0-1.856-1.519-3.375-3.375-3.375
					h-56.966c-1.856,0-3.375,1.519-3.375,3.375l0,0C375.183,340.245,376.702,341.763,378.558,341.763z"/>
				<g>
					<polygon style="fill:#E0E0E0;" points="444.205,335.014 446.1,335.014 453.332,287.837 451.437,287.837 					"/>
					<polygon style="fill:#E0E0E0;" points="415.279,335.014 417.174,335.014 424.406,287.837 422.51,287.837 					"/>
					<path style="fill:#EBEBEB;" d="M415.198,325.533h37.145c2.469,0,4.781-2.021,5.137-4.49l5.673-39.391
						c0.356-2.47-1.374-4.49-3.844-4.49h-37.145c-2.47,0-4.781,2.021-5.137,4.49l-5.673,39.391
						C410.999,323.512,412.728,325.533,415.198,325.533z"/>
				</g>
				<g>
					<path style="fill:#F5F5F5;" d="M420.693,341.763h26.067c1.856,0,3.375-1.519,3.375-3.375l0,0c0-1.856-1.519-3.375-3.375-3.375
						h-26.067c-1.856,0-3.375,1.519-3.375,3.375l0,0C417.319,340.245,418.837,341.763,420.693,341.763z"/>
				</g>
				<polygon style="fill:#E0E0E0;" points="406.504,382.398 408.4,382.398 415.631,341.763 413.736,341.763 				"/>
				<polygon style="fill:#E0E0E0;" points="373.641,382.398 375.536,382.398 382.768,341.763 380.873,341.763 				"/>
				<polygon style="fill:#E0E0E0;" points="419.227,382.398 417.332,382.398 410.1,341.763 411.995,341.763 				"/>
				<polygon style="fill:#E0E0E0;" points="452.09,382.398 450.195,382.398 442.963,341.763 444.859,341.763 				"/>
			</g>
		</g>
		<g>
			<g>
				<path style="fill:#EBEBEB;" d="M154.849,341.763h56.966c1.856,0,3.375-1.519,3.375-3.375l0,0c0-1.856-1.519-3.375-3.375-3.375
					h-56.966c-1.856,0-3.375,1.519-3.375,3.375l0,0C151.474,340.245,152.993,341.763,154.849,341.763z"/>
				<g>
					<polygon style="fill:#E0E0E0;" points="220.496,335.014 222.391,335.014 229.623,287.837 227.727,287.837 					"/>
					<polygon style="fill:#E0E0E0;" points="191.57,335.014 193.465,335.014 200.697,287.837 198.801,287.837 					"/>
					<path style="fill:#EBEBEB;" d="M191.488,325.533h37.145c2.47,0,4.781-2.021,5.137-4.49l5.673-39.391
						c0.356-2.47-1.374-4.49-3.844-4.49h-37.145c-2.47,0-4.781,2.021-5.137,4.49l-5.673,39.391
						C187.289,323.512,189.019,325.533,191.488,325.533z"/>
				</g>
				<g>
					<path style="fill:#F5F5F5;" d="M196.984,341.763h26.067c1.856,0,3.375-1.519,3.375-3.375l0,0c0-1.856-1.519-3.375-3.375-3.375
						h-26.067c-1.856,0-3.375,1.519-3.375,3.375l0,0C193.609,340.245,195.128,341.763,196.984,341.763z"/>
				</g>
				<polygon style="fill:#E0E0E0;" points="182.795,382.398 184.69,382.398 191.922,341.763 190.027,341.763 				"/>
				<polygon style="fill:#E0E0E0;" points="149.932,382.398 151.827,382.398 159.059,341.763 157.163,341.763 				"/>
				<polygon style="fill:#E0E0E0;" points="195.518,382.398 193.622,382.398 186.391,341.763 188.286,341.763 				"/>
				<polygon style="fill:#E0E0E0;" points="228.381,382.398 226.486,382.398 219.254,341.763 221.149,341.763 				"/>
			</g>
		</g>
	</g>
</g>
<g id="Background_Simple" style="display:none;">
	<g style="display:inline;">
		<path style="fill:#407BFF;" d="M353.478,341.766c-18.606,45.605-87.915,24.486-124.886,8.763
			c-18.617-7.917-33.323-14.582-53.491-10.589c-18.718,3.706-29.234,12.115-48.59,2.948c-17.801-8.43-34.4-40.86-33.825-62.605
			c0.706-26.68,16.872-36.171,22.947-57.558c8.753-30.817-54.678-95.814,6.673-111.924c15.999-4.201,30.216,6.714,44.709,11.85
			c21.557,7.64,34.99,2.489,55.727-6.632c18.913-8.318,39.899-16.038,59.683-7.654c19.235,8.152,29.095,29.327,49.528,35.876
			c32.596,10.449,100.863,17.891,66.404,70.027c-12.235,18.51-40.61,33.625-46.448,54.284
			C345.729,290.415,364.745,314.148,353.478,341.766z"/>
		<path style="opacity:0.9;fill:#FFFFFF;" d="M353.478,341.766c-18.606,45.605-87.915,24.486-124.886,8.763
			c-18.617-7.917-33.323-14.582-53.491-10.589c-18.718,3.706-29.234,12.115-48.59,2.948c-17.801-8.43-34.4-40.86-33.825-62.605
			c0.706-26.68,16.872-36.171,22.947-57.558c8.753-30.817-54.678-95.814,6.673-111.924c15.999-4.201,30.216,6.714,44.709,11.85
			c21.557,7.64,34.99,2.489,55.727-6.632c18.913-8.318,39.899-16.038,59.683-7.654c19.235,8.152,29.095,29.327,49.528,35.876
			c32.596,10.449,100.863,17.891,66.404,70.027c-12.235,18.51-40.61,33.625-46.448,54.284
			C345.729,290.415,364.745,314.148,353.478,341.766z"/>
	</g>
</g>
<g id="Shadow_1_">
	<ellipse id="_x3C_Path_x3E__36_" style="fill:#F5F5F5;" cx="250" cy="416.238" rx="193.889" ry="11.323"/>
</g>
<g id="Flower">
	<g>
		<path style="fill:#407BFF;" d="M223.036,242.82c0.201,5.619-9.537,18.177-9.537,18.177s-10.609-11.831-10.81-17.45
			c-0.201-5.619,2.874-10.289,9.81-10.537C219.435,232.762,222.835,237.201,223.036,242.82z"/>
		<rect x="213.157" y="243.172" style="fill:#263238;" width="0.683" height="149.16"/>
		<path style="fill:#407BFF;" d="M196.286,387.83c-1.338,0-2.373,1.21-2.131,2.526c1.449,7.866,9.558,13.888,19.344,13.888
			c9.786,0,17.895-6.022,19.344-13.888c0.242-1.316-0.793-2.526-2.131-2.526H196.286z"/>
		<g>
			<path style="fill:#407BFF;" d="M208.098,273.284c-3.427-3.426-7.88-6.509-12.926-8.023
				C191.095,269.473,194.952,275.219,208.098,273.284z"/>
			<path style="fill:#263238;" d="M213.297,280.421c-3.136-5.66-9.978-12.474-18.191-14.938l0.133-0.442
				c8.338,2.501,15.281,9.415,18.463,15.157L213.297,280.421z"/>
		</g>
		<g>
			<path style="fill:#407BFF;" d="M206.127,312.13c-0.03-13.497-9.831-17.253-17.643-10.951h0
				C182.918,306.927,188.183,314.77,206.127,312.13c-1.305-1.305-2.73-2.565-4.24-3.761
				C203.397,309.565,204.821,310.825,206.127,312.13z"/>
			<path style="fill:#263238;" d="M213.297,321.83c-4.289-7.74-13.645-17.059-24.88-20.43l0.132-0.442
				c11.359,3.408,20.817,12.827,25.151,20.649L213.297,321.83z"/>
		</g>
		<g>
			<path style="fill:#407BFF;" d="M220.416,290.2c4.389-4.388,10.093-8.337,16.556-10.276
				C242.194,285.318,237.254,292.677,220.416,290.2z"/>
			<path style="fill:#263238;" d="M213.701,299.31l-0.404-0.224c4.069-7.343,12.946-16.184,23.609-19.383l0.133,0.442
				C226.5,283.307,217.724,292.049,213.701,299.31z"/>
		</g>
		<g>
			<path style="fill:#407BFF;" d="M220.776,329.414c4.844-6.351,11.44-12.368,19.351-15.952
				C247.714,319.445,242.678,329.681,220.776,329.414z"/>
			<path style="fill:#263238;" d="M213.714,342.163l-0.43-0.168c3.923-10.052,13.714-22.837,26.748-28.742l0.19,0.42
				C227.307,319.525,217.602,332.198,213.714,342.163z"/>
		</g>
	</g>
</g>
<g id="Character_1">
	<g>
		<g>
			<path style="fill:#407BFF;" d="M163.302,366.286H95.47c-2.21,0-4.018-1.808-4.018-4.018l0,0c0-2.21,1.808-4.018,4.018-4.018
				h67.832c2.21,0,4.018,1.808,4.018,4.018l0,0C167.321,364.478,165.512,366.286,163.302,366.286z"/>
			<g>
				<polygon style="fill:#263238;" points="85.133,358.249 82.876,358.249 74.265,302.073 76.522,302.073 				"/>
				<polygon style="fill:#263238;" points="119.577,358.249 117.32,358.249 108.709,302.073 110.966,302.073 				"/>
				<path style="fill:#407BFF;" d="M119.674,346.959H75.443c-2.941,0-5.693-2.406-6.117-5.347l-6.755-46.904
					c-0.424-2.941,1.636-5.347,4.577-5.347h44.231c2.941,0,5.693,2.406,6.117,5.347l6.755,46.904
					C124.674,344.553,122.614,346.959,119.674,346.959z"/>
				<path style="opacity:0.4;fill:#FFFFFF;" d="M62.571,294.709l6.755,46.904c0.164,1.138,0.676,2.195,1.413,3.065
					c1.619,1.909,4.501,0.876,4.165-1.458l-7.218-50.117c-0.336-2.334-3.516-3.367-4.585-1.458
					C62.615,292.513,62.407,293.571,62.571,294.709z"/>
			</g>
			<g>
				<path style="fill:#407BFF;" d="M113.13,366.286H82.091c-2.21,0-4.019-1.808-4.019-4.018l0,0c0-2.21,1.808-4.018,4.019-4.018
					h31.039c2.21,0,4.018,1.808,4.018,4.018l0,0C117.148,364.478,115.34,366.286,113.13,366.286z"/>
				<path style="opacity:0.4;fill:#FFFFFF;" d="M113.13,366.286H82.091c-2.21,0-4.019-1.808-4.019-4.018l0,0
					c0-2.21,1.808-4.018,4.019-4.018h31.039c2.21,0,4.018,1.808,4.018,4.018l0,0C117.148,364.478,115.34,366.286,113.13,366.286z"/>
			</g>
			<polygon style="fill:#263238;" points="130.025,414.672 127.768,414.672 119.158,366.286 121.414,366.286 			"/>
			<polygon style="fill:#263238;" points="169.157,414.672 166.9,414.672 158.289,366.286 160.546,366.286 			"/>
			<polygon style="fill:#263238;" points="114.876,414.672 117.133,414.672 125.744,366.286 123.487,366.286 			"/>
			<polygon style="fill:#263238;" points="75.744,414.672 78.001,414.672 86.612,366.286 84.355,366.286 			"/>
		</g>
		<g>
			<g>
				<g>
					<g>
						<polygon style="fill:#7F3E3B;" points="191.773,368.192 180.617,373.041 187.013,380.504 196.342,376.462 						"/>
						<polygon style="opacity:0.2;" points="191.773,368.196 180.612,373.046 184.196,377.224 194.333,372.826 						"/>
					</g>
					<g>
						<path style="fill:#407BFF;" d="M185.047,384.105l1.27-0.247c0.756-0.147,1.389-0.662,1.687-1.373l0,0l0.793,0.403
							c0.459,0.233,0.982,0.307,1.487,0.208l17.332-3.373c0.004-1.545-1.306-3.306-1.306-3.306s-7.694,1.075-9.851-0.822
							c-0.166-0.146-0.392-0.199-0.596-0.113c-1.408,0.593-6.96,2.805-10.461,2.359c-0.464-0.059-0.841,0.359-0.764,0.82
							C185.062,381.201,185.047,384.105,185.047,384.105z"/>
						<path style="fill:#407BFF;" d="M196.143,376.049c-0.022,0-0.045-0.004-0.066-0.012c-0.067-0.026-0.114-0.089-0.118-0.161
							c-0.065-1.121,0.474-3.208,1.236-3.566c0.237-0.112,0.486-0.064,0.701,0.137c0.155,0.145,0.236,0.336,0.24,0.569
							c0.018,1.093-1.786,2.903-1.862,2.979C196.238,376.031,196.19,376.049,196.143,376.049z M197.447,372.62
							c-0.036,0-0.068,0.011-0.097,0.024c-0.485,0.228-0.948,1.675-1.019,2.755c0.579-0.639,1.445-1.734,1.434-2.376
							c-0.002-0.131-0.042-0.231-0.122-0.306C197.564,372.643,197.501,372.62,197.447,372.62z"/>
						<path style="fill:#407BFF;" d="M197.792,376.177c-0.838,0-1.619-0.121-1.678-0.13c-0.072-0.011-0.13-0.063-0.149-0.134
							c-0.02-0.07,0.005-0.145,0.06-0.191c0.866-0.713,2.871-1.509,3.609-1.104c0.23,0.127,0.338,0.356,0.303,0.648
							c-0.026,0.211-0.133,0.389-0.319,0.529C199.223,376.094,198.488,376.177,197.792,376.177z M196.631,375.742
							c0.857,0.092,2.254,0.146,2.765-0.241c0.105-0.079,0.162-0.17,0.175-0.279c0.022-0.179-0.045-0.242-0.113-0.28
							C198.989,374.686,197.545,375.164,196.631,375.742z"/>
					</g>
				</g>
				<path style="fill:#263238;" d="M91.54,333.079l4.779,10.008c7.051,14.773,24.427,22.199,38.299,16.388
					c8.098-3.4,16.941-10.576,22.959-13.858c5.148,11.277,14.78,23.719,22.155,32.377l14.913-7.508
					c-5.568-12.781-14.242-32.746-19.743-45.712c-1.999-4.698-6.667-7.921-11.594-8.054C138.513,316.05,91.54,333.079,91.54,333.079
					z"/>
				<g>
					<g>
						<polygon style="fill:#7F3E3B;" points="164.027,400.927 151.876,400.359 154.326,409.878 164.481,410.363 						"/>
						<polygon style="opacity:0.2;" points="164.025,400.93 151.87,400.362 153.244,405.693 164.281,406.215 						"/>
					</g>
					<g>
						<path style="fill:#407BFF;" d="M152.464,414.893h1.294c0.771,0,1.49-0.385,1.918-1.026l0,0l0.701,0.547
							c0.405,0.317,0.905,0.489,1.42,0.489h17.657c0.299-1.516-0.651-3.494-0.651-3.494s-7.758-0.414-9.513-2.689
							c-0.135-0.175-0.347-0.27-0.564-0.225c-1.496,0.313-7.367,1.423-10.719,0.317c-0.445-0.147-0.894,0.191-0.907,0.659
							C153.033,412.045,152.464,414.893,152.464,414.893z"/>
						<path style="fill:#407BFF;" d="M164.93,409.109c-0.033,0-0.068-0.009-0.098-0.027c-0.061-0.039-0.095-0.109-0.085-0.182
							c0.149-1.113,1.076-3.059,1.893-3.264c0.26-0.065,0.489,0.032,0.662,0.269c0.124,0.172,0.167,0.375,0.126,0.604
							c-0.191,1.076-2.306,2.508-2.395,2.569C165.002,409.099,164.966,409.109,164.93,409.109z M166.794,405.985
							c-0.022,0-0.044,0.004-0.063,0.008c-0.52,0.131-1.251,1.464-1.527,2.51c0.691-0.517,1.749-1.427,1.862-2.058
							c0.023-0.129,0.003-0.234-0.061-0.323C166.926,406.013,166.855,405.985,166.794,405.985z"/>
						<path style="fill:#407BFF;" d="M167.556,409.665c-1.115,0-2.609-0.538-2.689-0.567c-0.068-0.025-0.115-0.087-0.121-0.16
							c-0.005-0.072,0.033-0.141,0.097-0.175c0.986-0.535,3.106-0.933,3.752-0.394c0.203,0.168,0.264,0.414,0.173,0.693
							c-0.065,0.202-0.204,0.356-0.414,0.458C168.142,409.624,167.863,409.665,167.556,409.665z M165.433,408.897
							c0.823,0.254,2.181,0.574,2.76,0.292c0.117-0.057,0.191-0.136,0.224-0.241c0.057-0.172,0.003-0.246-0.058-0.296
							C167.946,408.309,166.439,408.504,165.433,408.897z"/>
					</g>
				</g>
				<path style="fill:#263238;" d="M84.593,329.119l0.081,10.569c0.126,15.591,13.342,20.119,29.125,21.292
					c9.212,0.678,21.661,0.892,28.845,0.752c1.047,10.915,4.457,33.168,7.891,42.491l15.518-1.085
					c0.406-13.231,1.003-31.994,1.505-44.436c0.192-4.853-2.81-9.624-7.442-11.903C136.846,335.343,84.593,329.119,84.593,329.119z"
					/>
				<path style="opacity:0.2;" d="M158.186,346.915c2.433,5.052,5.707,10.296,9.225,15.296c-0.078,2.183-0.163,4.499-0.252,6.903
					c-5.491-8.673-8.983-22.214-8.983-22.214S158.178,346.908,158.186,346.915z"/>
				<g>
					<path style="fill:#803E3C;" d="M135.234,268.07l1.013,0.514l1.245,0.612c0.852,0.391,1.708,0.795,2.579,1.145
						c1.733,0.733,3.49,1.313,5.199,1.793c1.715,0.451,3.392,0.759,4.981,0.885c1.591,0.103,3.081,0.047,4.491-0.22l-3.006,1.802
						c0.53-0.306,1.498-1.314,2.327-2.585c0.84-1.284,1.709-2.794,2.482-4.411c0.803-1.612,1.556-3.324,2.3-5.076l2.2-5.288
						l0.105-0.252c0.91-2.188,3.422-3.224,5.609-2.314c1.523,0.633,2.487,2.049,2.626,3.584c0.203,2.301,0.197,4.383,0.095,6.584
						c-0.109,2.177-0.363,4.362-0.758,6.587c-0.439,2.215-0.972,4.485-1.892,6.817c-0.94,2.327-2.089,4.809-4.424,7.339
						c-0.648,0.703-1.427,1.213-2.265,1.528l-0.741,0.274c-2.977,1.105-6.082,1.706-9.083,1.816
						c-3.007,0.144-5.914-0.13-8.682-0.669c-2.773-0.521-5.409-1.335-7.936-2.318c-1.26-0.506-2.504-1.034-3.717-1.649
						c-0.608-0.308-1.215-0.615-1.821-0.96l-0.917-0.536l-1.062-0.659c-3.97-2.463-5.192-7.679-2.728-11.649
						c2.328-3.752,7.113-5.049,10.983-3.102L135.234,268.07z"/>
				</g>
				<path style="fill:#7F3E3B;" d="M164.359,262.142l-3.331-3.589c-1.937-4.767,4.622-6.197,4.622-6.197l2.876-1.961
					c0.975-0.665,2.376-0.425,3.311,0.567l2.348,2.492c1.07,1.135,1.146,2.836,0.169,3.77l-2.197,2.099
					c-0.639,0.611-1.419,1.054-2.271,1.289L164.359,262.142z"/>
				<path style="fill:#407BFF;" d="M117.996,260.86c2.066-2.766,8.37-2.06,14.79,4.196c1.598-0.068,5.714,3.661,10.498,4.877
					c4.785,1.216,6.342,9.796,5.478,13.222c-0.91,3.607-2.711,5.988-7.173,6.473c-4.462,0.484-10.333-2.41-15.059-5.954
					C121.902,280.205,114.33,265.768,117.996,260.86z"/>
				<g>
					<path style="fill:#407BFF;" d="M115.654,258.663c-8.627,0.052-18.598,0.952-26.612,2.58c-6.117,1.243-9.869,7.417-8.279,13.453
						c6.579,24.965,2.854,52.375,3.373,57.38c0,0,52.382,7.541,60.412-8.029c4.276-20.735-7.551-29.125-13.84-53.875
						C129.046,263.637,122.397,258.622,115.654,258.663z"/>
					<path style="opacity:0.8;fill:#FFFFFF;" d="M115.654,258.663c-8.627,0.052-18.598,0.952-26.612,2.58
						c-6.117,1.243-9.869,7.417-8.279,13.453c6.579,24.965,2.854,52.375,3.373,57.38c0,0,52.382,7.541,60.412-8.029
						c4.276-20.735-7.551-29.125-13.84-53.875C129.046,263.637,122.397,258.622,115.654,258.663z"/>
				</g>
				<g style="opacity:0.2;">
					<path style="fill:#407BFF;" d="M91.114,330.4c-0.009,0-0.019,0-0.028-0.001c-0.13-0.015-0.224-0.134-0.208-0.264
						c0.034-0.293,0.064-0.606,0.092-0.938c0.01-0.131,0.138-0.224,0.257-0.217c0.131,0.011,0.229,0.126,0.218,0.257
						c-0.028,0.337-0.059,0.655-0.094,0.952C91.336,330.31,91.233,330.4,91.114,330.4z"/>
					<path style="fill:#407BFF;" d="M91.324,327.527c-0.004,0-0.007,0-0.01,0c-0.131-0.006-0.234-0.117-0.228-0.248
						c0.026-0.605,0.045-1.25,0.057-1.929c0.003-0.13,0.109-0.234,0.238-0.234c0.001,0,0.003,0,0.005,0
						c0.131,0.002,0.235,0.111,0.234,0.242c-0.012,0.684-0.031,1.333-0.057,1.942C91.557,327.427,91.452,327.527,91.324,327.527z
						 M91.399,323.656c-0.131,0-0.238-0.107-0.238-0.238l-0.001-0.111c0-0.593-0.004-1.2-0.011-1.825
						c-0.002-0.132,0.104-0.24,0.235-0.241c0.137-0.004,0.239,0.103,0.241,0.236c0.007,0.627,0.011,1.235,0.011,1.825l0.001,0.117
						C91.637,323.549,91.53,323.656,91.399,323.656z M91.354,319.779c-0.129,0-0.235-0.103-0.238-0.233
						c-0.014-0.631-0.031-1.277-0.05-1.936c-0.004-0.131,0.1-0.241,0.231-0.245c0.003,0,0.006,0,0.007,0
						c0.128,0,0.234,0.102,0.238,0.231c0.02,0.66,0.036,1.306,0.05,1.94c0.003,0.131-0.102,0.241-0.233,0.243
						C91.358,319.779,91.356,319.779,91.354,319.779z M91.239,315.905c-0.128,0-0.234-0.101-0.238-0.229
						c-0.023-0.636-0.049-1.281-0.077-1.935c-0.006-0.132,0.097-0.242,0.228-0.248c0.004,0,0.007,0,0.01,0
						c0.128,0,0.233,0.1,0.238,0.228c0.028,0.655,0.054,1.301,0.077,1.938c0.005,0.132-0.098,0.242-0.23,0.247
						C91.244,315.905,91.241,315.905,91.239,315.905z M91.075,312.033c-0.126,0-0.232-0.099-0.238-0.227
						c-0.031-0.64-0.063-1.285-0.098-1.935c-0.007-0.131,0.094-0.243,0.225-0.25c0.005,0,0.009,0,0.013,0
						c0.126,0,0.231,0.099,0.238,0.226c0.035,0.65,0.067,1.297,0.098,1.936c0.005,0.132-0.096,0.243-0.227,0.25
						C91.082,312.033,91.078,312.033,91.075,312.033z M90.872,308.162c-0.126,0-0.231-0.098-0.238-0.225
						c-0.036-0.642-0.074-1.287-0.113-1.934c-0.007-0.131,0.092-0.244,0.224-0.252c0.121-0.018,0.244,0.092,0.252,0.223
						c0.039,0.648,0.077,1.293,0.113,1.936c0.007,0.131-0.093,0.244-0.225,0.251C90.881,308.162,90.877,308.162,90.872,308.162z
						 M90.638,304.295c-0.125,0-0.23-0.097-0.237-0.223c-0.041-0.644-0.084-1.288-0.128-1.932c-0.009-0.131,0.09-0.245,0.222-0.254
						c0.126-0.013,0.245,0.09,0.253,0.222c0.044,0.645,0.087,1.29,0.127,1.935c0.008,0.131-0.091,0.244-0.222,0.253
						C90.649,304.295,90.643,304.295,90.638,304.295z M90.378,300.426c-0.124,0-0.229-0.096-0.237-0.221
						c-0.046-0.646-0.092-1.291-0.14-1.932c-0.01-0.131,0.088-0.246,0.22-0.255c0.152-0.011,0.245,0.089,0.255,0.22
						c0.048,0.642,0.094,1.287,0.14,1.934c0.009,0.131-0.089,0.245-0.221,0.254C90.389,300.426,90.383,300.426,90.378,300.426z
						 M90.094,296.56c-0.124,0-0.228-0.095-0.237-0.22c-0.049-0.648-0.1-1.292-0.151-1.931c-0.01-0.131,0.088-0.246,0.219-0.256
						c0.131-0.009,0.245,0.087,0.256,0.218c0.051,0.64,0.102,1.284,0.151,1.933c0.01,0.131-0.088,0.246-0.22,0.256
						C90.106,296.56,90.1,296.56,90.094,296.56z M89.786,292.697c-0.123,0-0.227-0.094-0.237-0.219l-0.162-1.931
						c-0.011-0.131,0.086-0.246,0.217-0.257c0.156-0.008,0.247,0.086,0.258,0.217l0.162,1.932c0.011,0.131-0.087,0.246-0.218,0.257
						C89.799,292.696,89.793,292.697,89.786,292.697z M89.456,288.835c-0.123,0-0.226-0.094-0.237-0.217
						c-0.058-0.655-0.115-1.299-0.174-1.929c-0.012-0.131,0.085-0.247,0.215-0.259c0.121-0.009,0.248,0.084,0.26,0.215
						c0.059,0.631,0.116,1.275,0.174,1.931c0.011,0.131-0.086,0.247-0.217,0.258C89.47,288.834,89.462,288.835,89.456,288.835z
						 M89.101,284.975c-0.122,0-0.225-0.092-0.237-0.216c-0.063-0.661-0.127-1.305-0.189-1.928
						c-0.013-0.131,0.083-0.247,0.214-0.261c0.132-0.021,0.248,0.083,0.261,0.213c0.062,0.624,0.126,1.268,0.189,1.93
						c0.012,0.131-0.084,0.247-0.215,0.26C89.116,284.974,89.109,284.975,89.101,284.975z M88.715,281.117
						c-0.121,0-0.224-0.091-0.237-0.214c-0.071-0.674-0.139-1.317-0.207-1.926c-0.015-0.131,0.079-0.248,0.21-0.263
						c0.125-0.016,0.248,0.08,0.262,0.21c0.068,0.609,0.138,1.254,0.208,1.929c0.013,0.131-0.082,0.248-0.212,0.262
						C88.732,281.117,88.723,281.117,88.715,281.117z"/>
					<path style="fill:#407BFF;" d="M88.281,277.272c-0.115,0-0.212-0.068-0.226-0.186l-0.115-0.942
						c-0.017-0.13,0.076-0.249,0.206-0.266c0.141-0.023,0.249,0.077,0.266,0.207l0.11,0.896c0.016,0.13-0.074,0.273-0.205,0.289
						C88.305,277.272,88.292,277.272,88.281,277.272z"/>
				</g>
				<g>
					<path style="fill:#803E3C;" d="M94.619,285.869l-1.187,2.698l-1.232,2.864c-0.822,1.916-1.577,3.858-2.336,5.784
						c-0.745,1.935-1.418,3.871-2.063,5.798c-0.622,1.937-1.168,3.848-1.651,5.758l-0.277-3.494
						c0.054,0.142,0.077,0.296,0.076,0.475c0.129,0.258,0.24,0.528,0.334,0.817c0.33,0.628,0.681,1.315,1.211,2.043
						c1.002,1.437,2.211,3.01,3.598,4.512c1.353,1.534,2.807,3.066,4.314,4.594l4.551,4.58l0.141,0.142
						c1.666,1.676,1.658,4.386-0.019,6.052c-1.218,1.211-2.987,1.535-4.5,0.979c-2.346-0.867-4.432-1.848-6.576-2.949
						c-2.123-1.098-4.187-2.344-6.237-3.722c-2.027-1.397-4.054-2.941-6.001-4.874c-0.976-0.933-1.943-2.062-2.89-3.271
						c-0.475-0.676-0.931-1.371-1.37-2.078c-0.432-0.854-0.84-1.735-1.217-2.626c-0.343-0.81-0.46-1.66-0.381-2.478l0.104-1.016
						c0.257-2.541,0.585-5.061,1.117-7.488c0.501-2.436,1.099-4.833,1.829-7.163c0.698-2.344,1.527-4.63,2.421-6.887
						c0.465-1.122,0.921-2.248,1.441-3.355c0.258-0.554,0.512-1.112,0.791-1.668l0.908-1.756c2.15-4.158,7.264-5.785,11.421-3.635
						c3.99,2.064,5.65,6.857,3.876,10.915L94.619,285.869z"/>
				</g>
				<path style="fill:#7F3E3B;" d="M98.074,323.952l-1.695,2.586c-1.113,5.023,5.592,5.337,5.592,5.337l3.163,1.453
					c1.072,0.493,2.414,0.022,3.17-1.112l1.899-2.849c0.866-1.298,0.657-2.988-0.463-3.745l-2.516-1.702
					c-0.732-0.495-1.576-0.802-2.455-0.892l-3.91-0.401C99.756,322.513,98.682,323.025,98.074,323.952z"/>
				<path style="fill:#407BFF;" d="M87,263.834c-3.392-0.639-7.952,5.935-8.722,13.196c-2.876,2.991-3.147,7.926-5.506,12.262
					c-4.827,8.873-0.741,11.81,2.38,13.465c6.713,3.558,14.246,2.237,16.25-1.779c2.004-4.016,4.146-8.694,4.749-14.57
					C97.035,277.788,93.02,264.968,87,263.834z"/>
				<path style="fill:#FFFFFF;" d="M136.824,284.459l-11.672,0.893c-0.54,0.041-1.131-0.398-1.313-0.975l-1.604-5.085
					c-0.182-0.578,0.11-1.084,0.65-1.125l11.672-0.893c0.54-0.041,1.13,0.398,1.313,0.975l1.604,5.085
					C137.656,283.912,137.364,284.418,136.824,284.459z"/>
				<path style="fill:#7F3E3B;" d="M116.06,261.358c-0.527-0.98-1.989-2.441-3.442-2.881c-0.58-1.207-0.732-2.586-0.368-4.235
					l-16.201-4.089c1.606,5.175,2.864,9.263,1.068,11.934c3.24,1.716,9.016,5.01,15.263,5.349
					C117.076,267.692,117.212,263.499,116.06,261.358z"/>
				<path style="opacity:0.2;" d="M112.152,254.74l-11.968,0.029c3.974,3.757,9.716,4.91,12.195,3.132
					C112.05,256.962,111.962,255.925,112.152,254.74z"/>
				<path style="fill:#E0E0E0;" d="M114.427,244.142c2.052-2.791,2.542-6.938,1.032-7.516c0.132-2.811-0.205-5.775-2.959-6.264
					c-3.12-0.554-6.192,1.511-6.512,5.331C101.903,240.323,108.32,245.688,114.427,244.142z"/>
				<path style="fill:#7F3E3B;" d="M92.995,241.615c1.966,7.376,3.46,12.342,8.43,14.623c9.875,4.532,14.224-0.584,14.501-8.419
					c0.249-7.052-3.008-17.929-10.918-19.36C97.214,227.05,91.029,234.24,92.995,241.615z"/>
				<path style="fill:#263238;" d="M110.242,248.286c0.393-0.017,0.807-0.068,1.24-0.165c0.117-0.026,0.183-0.143,0.148-0.261
					c-0.035-0.117-0.155-0.192-0.275-0.166c-3.159,0.708-5.301-1.194-5.322-1.213c-0.093-0.085-0.233-0.084-0.311,0.003
					c-0.079,0.086-0.067,0.225,0.026,0.309C105.828,246.867,107.552,248.4,110.242,248.286z"/>
				<path style="fill:#E0E0E0;" d="M93.789,246.849c2.89-1.911,4.782-5.633,3.565-6.697c1.095-2.592,1.557-6.361-0.613-6.9
					c-2.17-0.539-6.333-0.721-7.953,2.753C83.354,238.939,87.523,246.191,93.789,246.849z"/>
				<path style="opacity:0.2;" d="M103.093,241.083c0,0-1.569-0.403-2.654,0.403C101.923,241.555,103.093,241.083,103.093,241.083z"
					/>
				<path style="opacity:0.2;" d="M103.147,241.721c0,0-1.477-0.062-2.238,0.955C102.23,242.43,103.147,241.721,103.147,241.721z"/>
				<path style="opacity:0.2;" d="M113.4,239.111c0,0,0.544-0.798,1.046-0.446C113.896,239.159,113.4,239.111,113.4,239.111z"/>
				<path style="opacity:0.2;" d="M113.577,239.691c0,0,0.434-0.715,0.825-0.119C113.966,239.935,113.577,239.691,113.577,239.691z"
					/>
				<path style="opacity:0.2;" d="M109.669,232.637c0,0-3.746-0.179-6.688,0.806C106.725,233.201,109.669,232.637,109.669,232.637z"
					/>
				<path style="opacity:0.2;" d="M110.664,233.709c0,0-5.142,0.335-7.578,1.765C107.626,234.814,110.664,233.709,110.664,233.709z"
					/>
				<path style="fill:#7F3E3B;" d="M91.677,249.213c1.195,1.668,3.054,2.621,4.729,2.859c2.519,0.359,3.469-1.977,2.51-4.183
					c-0.863-1.986-3.213-4.565-5.617-3.912C90.932,244.621,90.31,247.307,91.677,249.213z"/>
				<path style="fill:#263238;" d="M105.152,241.079c0.123,0.608,0.545,1.034,0.942,0.95c0.398-0.084,0.62-0.645,0.497-1.253
					c-0.123-0.609-0.544-1.034-0.942-0.95C105.252,239.909,105.029,240.471,105.152,241.079z"/>
				<path style="fill:#263238;" d="M111.618,239.862c0.123,0.608,0.545,1.034,0.942,0.95c0.397-0.084,0.62-0.645,0.497-1.254
					c-0.123-0.608-0.545-1.034-0.942-0.95C111.718,238.692,111.495,239.254,111.618,239.862z"/>
				<path style="fill:#630F0F;" d="M109.623,240.768l0.991,5.123c0,0,2.04,0.063,3.021-1.036
					C112.451,242.351,109.623,240.768,109.623,240.768z"/>
				<path style="fill:#E0E0E0;" d="M102.825,239.637c-0.059,0.013-0.122,0.012-0.184-0.006c-0.192-0.058-0.3-0.262-0.241-0.455
					c0.592-1.938,2.201-2.434,2.27-2.454c0.193-0.057,0.395,0.053,0.45,0.247c0.055,0.193-0.056,0.396-0.248,0.454l0,0
					c-0.053,0.016-1.304,0.416-1.776,1.963C103.056,239.516,102.949,239.609,102.825,239.637z"/>
				<path style="fill:#E0E0E0;" d="M114.747,237.31c-0.116,0.022-0.24-0.013-0.328-0.104c-1.114-1.154-2.407-0.926-2.462-0.916
					c-0.197,0.037-0.387-0.092-0.423-0.29c-0.036-0.197,0.092-0.388,0.289-0.427c0.072-0.013,1.726-0.323,3.121,1.122
					c0.139,0.144,0.134,0.376-0.011,0.516C114.881,237.265,114.815,237.297,114.747,237.31z"/>
				<path style="fill:#407BFF;" d="M117.112,274.674c-8.548-0.832-25.882-12.22-19.211-14.64c4.277,4.703,12.005,5.934,15.327,5.936
					c1.238-1.184,2.427-4.52-0.61-7.493C116.096,258.18,123.073,268.876,117.112,274.674z"/>
			</g>
		</g>
	</g>
</g>
<g id="Character_3">
	<g>
		<g>
			<path style="fill:#407BFF;" d="M341.73,366.855h67.832c2.21,0,4.018-1.808,4.018-4.018l0,0c0-2.21-1.808-4.018-4.018-4.018
				H341.73c-2.21,0-4.018,1.808-4.018,4.018l0,0C337.711,365.047,339.52,366.855,341.73,366.855z"/>
			<g>
				<polygon style="fill:#263238;" points="419.899,358.818 422.156,358.818 430.767,302.642 428.51,302.642 				"/>
				<polygon style="fill:#263238;" points="385.455,358.818 387.712,358.818 396.323,302.642 394.066,302.642 				"/>
				<path style="fill:#407BFF;" d="M385.358,347.528h44.231c2.941,0,5.693-2.406,6.117-5.347l6.755-46.904
					c0.424-2.941-1.636-5.347-4.577-5.347h-44.231c-2.941,0-5.693,2.406-6.117,5.347l-6.755,46.904
					C380.358,345.122,382.418,347.528,385.358,347.528z"/>
				<path style="opacity:0.4;fill:#FFFFFF;" d="M442.461,295.278l-6.755,46.904c-0.164,1.138-0.676,2.195-1.413,3.065
					c-1.619,1.909-4.501,0.876-4.165-1.458l7.218-50.117c0.336-2.334,3.516-3.367,4.585-1.458
					C442.417,293.082,442.625,294.14,442.461,295.278z"/>
			</g>
			<g>
				<path style="fill:#407BFF;" d="M391.902,366.855h31.039c2.21,0,4.018-1.808,4.018-4.018l0,0c0-2.21-1.808-4.018-4.018-4.018
					h-31.039c-2.21,0-4.018,1.808-4.018,4.018l0,0C387.884,365.047,389.692,366.855,391.902,366.855z"/>
				<path style="opacity:0.4;fill:#FFFFFF;" d="M391.902,366.855h31.039c2.21,0,4.018-1.808,4.018-4.018l0,0
					c0-2.21-1.808-4.018-4.018-4.018h-31.039c-2.21,0-4.018,1.808-4.018,4.018l0,0C387.884,365.047,389.692,366.855,391.902,366.855
					z"/>
			</g>
			<polygon style="fill:#263238;" points="375.007,415.241 377.264,415.241 385.875,366.855 383.618,366.855 			"/>
			<polygon style="fill:#263238;" points="335.875,415.241 338.132,415.241 346.743,366.855 344.486,366.855 			"/>
			<polygon style="fill:#263238;" points="390.156,415.241 387.899,415.241 379.288,366.855 381.545,366.855 			"/>
			<polygon style="fill:#263238;" points="429.288,415.241 427.031,415.241 418.42,366.855 420.677,366.855 			"/>
		</g>
		<g>
			<g>
				<path style="fill:#263238;" d="M353.85,260.933c2.423,3.171,3.68,2.342,5.307-1.666c1.042-2.567,3.887-1.435,4.549-6.016
					c0.272-1.885-5.713-5.532-8.956-4.555C351.506,249.673,351.96,258.459,353.85,260.933z"/>
				<path d="M358.845,281.537c-4.29-1.232-8.766,1.246-9.999,5.536l-0.155,0.541l-0.42,1.462l-0.494,1.621
					c-0.353,1.079-0.699,2.162-1.095,3.212c-0.764,2.108-1.651,4.118-2.592,5.906c-0.952,1.77-2.018,3.307-2.965,4.28
					c-0.414,0.433-0.797,0.718-1.113,0.948c-0.604-0.387-1.215-0.802-1.823-1.263c-1.559-1.181-3.171-2.5-4.724-3.942
					c-1.582-1.417-3.133-2.941-4.691-4.492c-1.549-1.533-3.12-3.203-4.618-4.71l-0.176-0.178c-1.1-1.103-2.788-1.521-4.337-0.928
					c-2.099,0.803-3.15,3.155-2.347,5.254c0.916,2.395,1.941,4.513,3.093,6.688c1.156,2.148,2.428,4.245,3.842,6.304
					c1.437,2.037,2.972,4.068,4.794,5.989c1.815,1.924,3.849,3.821,6.458,5.486c0.921,0.584,2.032,0.94,3.204,0.948l0.603,0.005
					c2.246,0.016,4.559-0.434,6.6-1.247c2.049-0.805,3.81-1.95,5.307-3.158c3.003-2.444,5.046-5.181,6.729-7.892
					c1.689-2.714,2.948-5.472,4.027-8.235c0.523-1.388,1.017-2.773,1.429-4.184c0.208-0.705,0.413-1.411,0.595-2.132l0.263-1.096
					l0.268-1.232C365.398,286.905,362.956,282.718,358.845,281.537z"/>
				<path style="fill:#FFB573;" d="M309.712,291.238l2.52,1.998c1.001,0.794,2.162,1.363,3.403,1.667l3.445,0.845
					c1.598,0.392,3.279-0.172,4.317-1.449l0,0c1.44-1.77,1.257-4.393-0.478-5.874c-1.827-1.56-4.254-2.477-4.254-2.477l-3.537-2.066
					c-1.199-0.7-2.728-0.429-3.614,0.64l-2.224,2.686C308.276,288.432,308.467,290.25,309.712,291.238z"/>
				<path style="fill:#263238;" d="M378.46,276.204c-8.274,0.663-17.568,1.715-24.582,5.012c-3.498,1.644-5.447,5.452-4.931,9.282
					c1.055,7.823,1.874,13.886,3.779,20.32c4.131,13.958-5.875,20.133,3.433,30.947c4.081,4.64,29.094,8.99,46.804,3.177
					c2.3-9.572,1.221-28.899-1.639-50.227C399.813,283.446,389.794,275.296,378.46,276.204z"/>
				<path d="M396.463,305.077c4.603,21.635,1.137,27.384-7.785,33.412c-12.519,1.943-17.535-3.228-17.535-3.228L396.463,305.077z"/>
				<path style="fill:#FFFFFF;" d="M367.687,308.267l10.849,0.076c0.502,0.004,0.939-0.426,0.973-0.954l0.293-4.649
					c0.033-0.528-0.35-0.963-0.852-0.967l-10.849-0.076c-0.502-0.004-0.939,0.426-0.973,0.954l-0.293,4.649
					C366.802,307.828,367.186,308.263,367.687,308.267z"/>
				<g style="opacity:0.2;">
					<path style="fill:#FFFFFF;" d="M361.819,293.404c-0.146,0-0.284-0.091-0.336-0.237c-0.065-0.186,0.032-0.389,0.217-0.455
						c6.154-2.18,14.887-7.814,17.633-11.373c0.119-0.157,0.342-0.184,0.5-0.065c0.155,0.12,0.184,0.344,0.064,0.499
						c-3.137,4.066-12.23,9.579-17.959,11.61C361.899,293.397,361.858,293.404,361.819,293.404z"/>
					<path style="fill:#FFFFFF;" d="M367.909,293.946c-0.034,0-0.07-0.005-0.105-0.016c-5.851-1.81-8.275-7.78-8.785-11.023
						c-0.031-0.194,0.102-0.376,0.297-0.407c0.196-0.03,0.376,0.103,0.407,0.296c0.484,3.08,2.776,8.747,8.292,10.453
						c0.188,0.058,0.293,0.257,0.234,0.445C368.202,293.847,368.06,293.946,367.909,293.946z"/>
				</g>
				<path style="fill:#FFB573;" d="M373.302,264.836c-0.158,4.128,0.932,10.396,4.079,12.777c1.501,1.135,1.412,3.38-0.177,4.388
					c-2.3,1.458-8.528,4.628-11.63,4.628c-3.035,0-4.913-3.44-4.561-5.127c0.17-0.815,0.681-1.505,1.297-2.065
					c2.098-1.905,0.563-3.873-0.305-5.31L373.302,264.836z"/>
				<path style="opacity:0.2;" d="M369.909,270.575c-0.069-0.248-0.162-0.496-0.254-0.737l-7.645,4.29
					c0.567,0.935,1.414,2.102,1.357,3.325C367.211,275.896,370.602,272.941,369.909,270.575z"/>
				<g>
					<path style="fill:#FFB573;" d="M323.127,393.861c1.264-1.322,9.457-3.836,9.457-3.836c3.43,9.729,5.291,18.781,5.291,18.781
						l-10.584,1.063C327.291,409.869,325.545,399.149,323.127,393.861z"/>
					<g>
						<path style="fill:#407BFF;" d="M372.998,336.595c-30.597,0.434-70.867-1.203-61.38,26.686
							c4.06,11.936,0.651,7.878,5.398,22.334c2.044,6.225,2.74,8.06,4.224,12.371c1.623,3.865,11.365,3.147,14.961,1.636
							c4.321-2.303,0.662-8.511,0.159-12.004c-2.457-17.067,2.054-15.135-3.312-26.324c9.765,1.413,40.883,0.427,44.971-16.35
							C378.018,344.943,383.642,338.249,372.998,336.595z"/>
						<path style="opacity:0.4;" d="M372.998,336.595c-30.597,0.434-70.867-1.203-61.38,26.686
							c4.06,11.936,0.651,7.878,5.398,22.334c2.044,6.225,2.74,8.06,4.224,12.371c1.623,3.865,11.365,3.147,14.961,1.636
							c4.321-2.303,0.662-8.511,0.159-12.004c-2.457-17.067,2.054-15.135-3.312-26.324c9.765,1.413,40.883,0.427,44.971-16.35
							C378.018,344.943,383.642,338.249,372.998,336.595z"/>
					</g>
					<path style="fill:#263238;" d="M323.733,400.039l1.306,2.582c0.161,0.318,0.508,0.494,0.859,0.433
						c1.733-0.304,6.9-1.13,9.906-0.768c0.455,0.055,0.862-0.292,0.89-0.749c0.061-1.015,0.049-2.334,0.033-3.159
						c-0.009-0.441-0.369-0.791-0.81-0.789c-1.783,0.008-6.38,0.152-11.639,1.295C323.762,398.994,323.496,399.569,323.733,400.039z
						"/>
					<path style="fill:#263238;" d="M340.168,415.509l-1.128-7.436c-0.051-0.334-0.376-0.57-0.782-0.569l-10.852,0.046
						c-0.857,0.003-1.826,0.135-2.467,0.663c-2.443,2.015-6.225,3.948-11.727,5.016c-1.739,0.338-1,3.793,3.079,3.776
						c6.746-0.028,6.465-0.241,12.217-0.265c4.919-0.021,6.155,0.225,10.063,0.265C339.508,417.014,340.285,416.279,340.168,415.509
						z"/>
				</g>
				<path style="fill:#FFB573;" d="M374.579,255.006c-0.007,7.5,0.38,11.865-3.248,16.165c-5.456,6.469-15.115,4.237-17.403-2.964
					c-2.06-6.481-1.703-17.658,5.604-21.551C366.731,242.819,374.586,247.506,374.579,255.006z"/>
				<path style="fill:#263238;" d="M360.75,258.307c-0.052,0.679,0.265,1.254,0.71,1.284c0.444,0.03,0.847-0.495,0.9-1.174
					c0.052-0.679-0.265-1.253-0.71-1.284C361.206,257.103,360.803,257.628,360.75,258.307z"/>
				<path style="fill:#263238;" d="M353.725,258.152c-0.053,0.679,0.265,1.254,0.71,1.284c0.444,0.03,0.847-0.495,0.9-1.174
					c0.052-0.679-0.265-1.253-0.71-1.284C354.181,256.948,353.777,257.473,353.725,258.152z"/>
				<path style="fill:#263238;" d="M373.064,261.355c-3.692,1.518-4.359,0.168-3.744-4.114c0.394-2.742-2.634-3.198-0.896-7.489
					c0.715-1.766,7.722-1.899,10.031,0.58C380.763,252.811,375.943,260.171,373.064,261.355z"/>
				<path style="fill:#263238;" d="M371.529,251.695c-8.441,0.733-19.275,0.775-20.796-5.429c-1.028-4.192,4.055-10.482,11.86-4.371
					c5.426,4.248,10.695,1.621,13.345,2.531C378.354,245.255,383.005,250.698,371.529,251.695z"/>
				<path style="fill:#263238;" d="M376.998,250.62c-0.367,0-0.751-0.037-1.148-0.111c-0.258-0.048-0.427-0.296-0.379-0.554
					c0.048-0.259,0.302-0.426,0.554-0.379c1.225,0.229,2.275,0.041,2.948-0.533c0.456-0.39,0.699-0.929,0.683-1.52
					c-0.007-0.262,0.2-0.48,0.461-0.487c0.005,0,0.009,0,0.013,0c0.257,0,0.467,0.204,0.475,0.462
					c0.023,0.882-0.337,1.687-1.016,2.267C378.928,250.328,378.032,250.62,376.998,250.62z"/>
				<path style="fill:#263238;" d="M361.711,266.013c-0.334,0.094-0.697,0.165-1.091,0.205c-0.106,0.011-0.201-0.067-0.212-0.174
					c-0.011-0.106,0.064-0.2,0.174-0.212c2.878-0.287,4.022-2.436,4.034-2.458c0.049-0.095,0.166-0.133,0.261-0.083
					c0.095,0.049,0.133,0.166,0.083,0.261C364.916,263.637,363.996,265.367,361.711,266.013z"/>
				<path style="fill:#263238;" d="M362.91,254.216c0.136-0.011,0.272,0.057,0.341,0.186c0.749,1.393,2.049,1.517,2.062,1.518
					c0.195,0.017,0.34,0.188,0.323,0.383c-0.017,0.195-0.187,0.341-0.383,0.324c-0.069-0.006-1.698-0.162-2.627-1.889
					c-0.093-0.172-0.028-0.387,0.144-0.48C362.815,254.233,362.862,254.22,362.91,254.216z"/>
				<path style="fill:#263238;" d="M355.12,254.389c0.079,0.01,0.154,0.046,0.213,0.108c0.135,0.142,0.129,0.366-0.013,0.501
					c-1.421,1.35-3.017,0.991-3.086,0.974c-0.191-0.045-0.308-0.236-0.263-0.427c0.045-0.19,0.239-0.304,0.426-0.263
					c0.061,0.016,1.304,0.275,2.434-0.799C354.912,254.408,355.018,254.376,355.12,254.389z"/>
				<path style="fill:#FFB573;" d="M377.637,262.32c-0.884,1.753-2.495,2.935-4.036,3.415c-2.317,0.723-3.548-1.332-2.964-3.557
					c0.525-2.002,2.364-4.791,4.718-4.543C377.675,257.88,378.647,260.315,377.637,262.32z"/>
				<path style="fill:#ED893E;" d="M357.135,258.393c0,0-1.01,3.617-2.348,5.444c1.176,0.894,2.948,0.263,2.948,0.263
					L357.135,258.393z"/>
				<g>
					<path style="fill:#FFB573;" d="M353.686,393.289c1.124-1.443,9.021-4.772,9.021-4.772c4.396,9.332,7.162,18.15,7.162,18.15
						l-10.422,2.127C359.447,408.794,356.626,398.305,353.686,393.289z"/>
					<g>
						<path style="fill:#407BFF;" d="M376.923,334.548c-30.072,2.047-53.328,2.108-40.058,28.409
							c5.679,11.256,3.724,8.843,9.907,22.746c2.663,5.986,3.541,7.741,5.453,11.88c2.005,3.682,11.625,1.982,15.05,0.116
							c4.066-2.728-0.202-8.535-1.055-11.958c-4.169-16.731,0.557-14.222-5.819-24.868c9.854,0.505,43.46,3.818,42.562-15.929
							C402.962,344.943,398.068,334.548,376.923,334.548z"/>
						<path style="opacity:0.4;" d="M376.923,334.548c-30.072,2.047-53.328,2.108-40.058,28.409
							c5.679,11.256,3.724,8.843,9.907,22.746c2.663,5.986,3.541,7.741,5.453,11.88c2.005,3.682,11.625,1.982,15.05,0.116
							c4.066-2.728-0.202-8.535-1.055-11.958c-4.169-16.731,0.557-14.222-5.819-24.868c9.854,0.505,43.46,3.818,42.562-15.929
							C402.962,344.943,398.068,334.548,376.923,334.548z"/>
					</g>
					<path style="fill:#263238;" d="M354.914,399.374l1.56,2.437c0.192,0.3,0.555,0.441,0.898,0.344
						c1.693-0.477,6.75-1.822,9.777-1.766c0.458,0.008,0.828-0.377,0.809-0.835c-0.042-1.016-0.187-2.327-0.287-3.146
						c-0.053-0.438-0.447-0.75-0.886-0.703c-1.773,0.188-6.332,0.796-11.449,2.464C354.837,398.332,354.63,398.93,354.914,399.374z"
						/>
					<path style="fill:#263238;" d="M372.828,412.621l-2.163-7.534c-0.099-0.323-0.455-0.51-0.857-0.449l-10.73,1.622
						c-0.848,0.128-1.787,0.399-2.344,1.014c-2.124,2.349-5.087,4.887-10.588,5.955c-1.739,0.338-1,3.793,3.079,3.776
						c6.746-0.028,6.455-0.889,12.147-1.722c4.303-0.63,6.127-0.656,10.019-1.012C372.323,414.185,373.023,413.376,372.828,412.621z
						"/>
				</g>
				<path style="fill:#FFB573;" d="M347.158,332.939l3.132-0.729c1.245-0.29,2.537-0.307,3.789-0.052l3.475,0.71
					c1.612,0.329,2.891,1.558,3.283,3.156l0,0c0.545,2.215-0.742,4.509-2.944,5.105c-2.319,0.628-4.905,0.419-4.905,0.419
					l-4.081,0.355c-1.383,0.12-2.65-0.779-2.993-2.124l-0.862-3.379C344.66,334.861,345.61,333.299,347.158,332.939z"/>
				<path style="fill:#263238;" d="M396.798,296.709c-0.207-2.797-0.455-5.476-0.886-8.366c-0.635-4.19-4.432-7.243-8.712-6.867
					c-4.452,0.391-7.745,4.318-7.354,8.77l0.01,0.12l0.669,7.609c0.226,2.56,0.412,5.122,0.584,7.654
					c0.086,1.268,0.149,2.53,0.198,3.782c0.067,1.254,0.112,2.496,0.129,3.721c0.009,1.51,0.003,3.002-0.046,4.435
					c-1.128,0.809-2.329,1.619-3.547,2.406c-2.28,1.462-4.652,2.94-7.076,4.356c-2.408,1.45-4.864,2.87-7.327,4.305
					c-2.452,1.439-4.962,2.876-7.379,4.348l-0.072,0.042c-1.435,0.877-1.793,2.554-1.246,4.244c0.69,2.132,2.044,3.661,4.232,3.181
					c2.946-0.646,5.753-1.439,8.593-2.289c2.829-0.854,5.629-1.804,8.426-2.835c2.783-1.058,5.577-2.147,8.35-3.462
					c2.786-1.321,5.561-2.673,8.463-4.642c1.327-0.905,2.336-2.311,2.7-4.006l0.131-0.609c0.674-3.139,1.024-6.076,1.231-8.982
					c0.232-2.903,0.276-5.727,0.258-8.545C397.129,302.263,396.98,299.483,396.798,296.709z"/>
			</g>
		</g>
	</g>
</g>
<g id="Character_2">
	<g>
		<g>
			<g>
				<path style="fill:#FF8B7B;" d="M258.367,293.981c-0.423-2.765-5.492-3.922-5.492-3.922l-2.975-1.229
					c-1.008-0.417-2.17-0.042-2.744,0.886l-1.444,2.329c-0.658,1.062-0.315,2.457,0.761,3.092l2.745,1.621
					c0.49,0.289,1.037,0.47,1.603,0.529l2.304,0.24c1.975,0.205,3.891-0.747,4.921-2.445l0.135-0.223
					C258.339,294.597,258.414,294.285,258.367,293.981z"/>
				<path style="fill:#FF8B7B;" d="M292.758,272.204c-1.098,4.792-2.32,13.596,0.952,16.92c0,0-9.401,1.578-16.829,8.614
					c-3.191-6.398,1.844-9.086,1.844-9.086c5.417-1.114,5.404-5.108,4.586-8.884L292.758,272.204z"/>
				<path style="fill:#E0E0E0;" d="M275.813,293.144c1.67-5.099-2.35-6.124,4.525-8.228c5.384-1.648,15.404-1.194,17.681,0.621
					c1.27,1.013-0.666,4.096-0.666,4.096L275.813,293.144z"/>
				<path style="fill:#FF8B7B;" d="M301.13,297.826l-0.34,0.426l-0.293,0.353l-0.574,0.664c-0.382,0.436-0.78,0.83-1.171,1.238
					c-0.793,0.793-1.604,1.557-2.439,2.289c-1.676,1.456-3.451,2.79-5.336,3.965c-0.924,0.612-1.908,1.141-2.871,1.692
					c-1,0.495-1.98,1.019-3.015,1.444c-2.025,0.935-4.177,1.6-6.327,2.199l-0.284,0.079c-0.408,0.113-0.832,0.145-1.229,0.108
					c-1.907-0.184-3.164-0.674-4.356-1.174c-1.171-0.512-2.214-1.069-3.209-1.648c-1.985-1.156-3.768-2.437-5.507-3.739
					c-1.722-1.322-3.377-2.688-4.975-4.109c-1.588-1.446-3.136-2.872-4.639-4.451c-0.95-0.998-0.911-2.577,0.087-3.526
					c0.823-0.783,2.04-0.894,2.974-0.349l0.051,0.03c1.749,1.02,3.52,2.11,5.297,3.115c1.768,1.028,3.532,2.04,5.299,2.99
					c1.754,0.962,3.532,1.846,5.245,2.606c0.855,0.376,1.701,0.7,2.474,0.932c0.751,0.23,1.507,0.363,1.683,0.318l-1.513,0.187
					c1.643-0.642,3.266-1.317,4.819-2.164c1.562-0.817,3.068-1.759,4.521-2.776c1.452-1.019,2.855-2.12,4.18-3.3
					c0.668-0.582,1.313-1.187,1.934-1.803l0.895-0.93l0.425-0.452l0.331-0.366l0.272-0.3c1.848-2.042,5-2.199,7.042-0.351
					C302.539,292.794,302.751,295.784,301.13,297.826z"/>
				<g>
					<path style="fill:#407BFF;" d="M263.748,299.555c0.039,3.249-5.321,10.59,0.865,15.139c0.537,6.579,1.264,13.06,2.672,23.863
						l33.001,1.043c-3.143-11.988-0.434-19.925,4.594-40.704c1.166-4.818-2.098-9.583-7.012-10.235
						c-1.313-0.174-2.705-0.329-4.131-0.443c-5.545-0.443-10.089-0.764-14.985-0.473c-1.623,0.097-3.302,0.249-4.906,0.422
						C268.057,288.793,263.678,293.732,263.748,299.555z"/>
					<path style="opacity:0.4;" d="M263.748,299.555c0.039,3.249-5.321,10.59,0.865,15.139c0.537,6.579,1.264,13.06,2.672,23.863
						l33.001,1.043c-3.143-11.988-0.434-19.925,4.594-40.704c1.166-4.818-2.098-9.583-7.012-10.235
						c-1.313-0.174-2.705-0.329-4.131-0.443c-5.545-0.443-10.089-0.764-14.985-0.473c-1.623,0.097-3.302,0.249-4.906,0.422
						C268.057,288.793,263.678,293.732,263.748,299.555z"/>
				</g>
				<path style="fill:#263238;" d="M276.044,264.676c-0.095,0.598-0.49,1.033-0.881,0.97c-0.391-0.062-0.631-0.598-0.535-1.196
					c0.095-0.598,0.49-1.033,0.881-0.97C275.9,263.542,276.14,264.077,276.044,264.676z"/>
				<path style="fill:#263238;" d="M275.677,263.54l-1.371-0.643C274.306,262.897,274.864,264.137,275.677,263.54z"/>
				<path style="fill:#FF5652;" d="M275.701,265.254c0,0-1.426,2.414-2.742,3.479c0.672,0.863,2.069,0.741,2.069,0.741
					L275.701,265.254z"/>
				<path style="fill:#263238;" d="M275.187,261.19c-0.083-0.03-0.156-0.09-0.199-0.175c-0.088-0.176-0.017-0.39,0.158-0.478
					c1.758-0.884,3.188-0.074,3.248-0.038c0.17,0.099,0.228,0.317,0.129,0.486c-0.099,0.17-0.316,0.227-0.486,0.129
					c-0.056-0.033-1.173-0.645-2.571,0.059C275.376,261.218,275.276,261.222,275.187,261.19z"/>
				<path style="fill:#FF8B7B;" d="M296.133,265.871c-1.614,7.278-2.145,10.393-6.387,13.584c-6.38,4.801-14.79,1.243-15.34-6.367
					c-0.495-6.849,2.229-17.601,9.749-19.4C291.565,251.915,297.747,258.593,296.133,265.871z"/>
				<path style="fill:#263238;" d="M278.842,267.519c1.367,6.786,7.985,12.385,12.969,12.175s12.402-9.66,12.192-16.797
					c-0.21-7.137-5.179-13.365-13.297-13.015C282.589,250.231,272.227,250.725,278.842,267.519z"/>
				<path style="fill:#263238;" d="M287.978,252.611c-6.159-6.368-14.696-1.82-15.886,4.899c3.585-0.7,6.568,4.339,11.227,4.059
					C288.68,261.246,291.422,256.172,287.978,252.611z"/>
				<path style="fill:#407BFF;" d="M295.116,253.94c0.845-6.055,6.998-4.899,9.518-1.75c2.519,3.149,3.639,12.804-2.519,10.706
					C295.955,260.798,294.696,256.949,295.116,253.94z"/>
				<path style="fill:#263238;" d="M300.801,256.097c-1.098-6.903,3.886-21.939,16.154-16.158
					c10.134,4.776-3.806,30.241,10.134,34.864C321.801,282.869,303.65,274.002,300.801,256.097z"/>
				<path style="fill:#263238;" d="M328.467,278.04c-0.03,0-0.059-0.005-0.087-0.017c-7.43-2.948-7.643-14.604-7.814-23.97
					c-0.112-6.089-0.208-11.348-2.191-12.624c-0.645-0.414-1.476-0.39-2.543,0.073c-0.12,0.052-0.261-0.003-0.314-0.124
					c-0.052-0.121,0.003-0.261,0.124-0.314c1.211-0.524,2.216-0.535,2.991-0.036c2.197,1.414,2.295,6.79,2.409,13.016
					c0.168,9.224,0.378,20.705,7.513,23.536c0.123,0.048,0.182,0.187,0.134,0.309C328.651,277.983,328.562,278.04,328.467,278.04z"
					/>
				<path style="fill:#FF8B7B;" d="M282.081,268.5c-1.043,1.639-1.453,2.354-2.716,2.787c-1.899,0.652-3.485-0.891-2.905-2.786
					c0.523-1.705,2.141-4.099,4.021-3.93C282.334,264.738,283.124,266.861,282.081,268.5z"/>
				<polygon style="fill:#FFFFFF;" points="277.606,272.026 276.607,274.153 275.608,272.026 276.607,269.898 				"/>
				<path style="fill:#FF8B7B;" d="M279.655,339.078c0,0-27.818-1.428-46.133,6.858c-5.703,2.58-6.581,6.891-7.587,13.069
					c-4.216,25.903-10.766,52.002-10.766,52.002l6.237,1.858c0,0,23.271-34.195,20.08-52.749
					c43.199,9.165,56.855-5.187,56.855-5.187L279.655,339.078z"/>
				<g>
					<path style="fill:#263238;" d="M215.466,409.845c-0.344-0.11-0.632,0.102-0.949,0.275c-2.253,1.224-2.245,1.286-8.332,1.913
						c-2.037,0.21-2.258,2.064,2.69,3.618c6.959,2.185,9.786,3.073,12.096,3.798c1.186,0.372,3.362-2.464,1.71-7.149
						c-0.115-0.326-0.428-0.551-0.772-0.576C218.337,411.465,216.385,410.139,215.466,409.845z"/>
				</g>
				<path style="fill:#FF8B7B;" d="M296.014,341.359c0,0-22.127-3.693-40.419,4.522c-5.729,2.573-9.088,8.592-8.196,14.809
					c3.725,25.984,13.051,56.525,13.051,56.525l6.507-0.096c0,0-0.48-36.297-3.67-54.851c3.68,1.205,9.958,1.234,13.202,1.079
					c11.992-0.572,21.798-3.803,20.309-15.716L296.014,341.359z"/>
				<g>
					<path style="fill:#263238;" d="M260.063,416.017c-0.361-0.002-0.572,0.287-0.823,0.546c-1.783,1.842-1.757,1.9-7.376,4.322
						c-1.88,0.81-1.536,2.646,3.65,2.646c7.294,0,10.257,0,12.678,0c1.243,0,2.469-3.358-0.51-7.333
						c-0.207-0.277-0.573-0.398-0.909-0.319C263.287,416.703,261.028,416.022,260.063,416.017z"/>
				</g>
				<path style="fill:#263238;" d="M267.285,338.557c0,0-17.696-0.11-31.06,5.379c-0.034,18.831,7.81,26.378,7.81,26.378
					s72.725,12.78,56.251-30.714C291.762,337.033,267.479,337.793,267.285,338.557z"/>
				<path style="fill:#FF8B7B;" d="M248.698,341.629c-1.003,2.611-6.202,2.661-6.202,2.661l-3.169,0.567
					c-1.074,0.192-2.129-0.422-2.493-1.45l-0.914-2.584c-0.417-1.178,0.216-2.467,1.402-2.859l3.027-0.999
					c0.54-0.178,1.113-0.238,1.678-0.175l2.303,0.257c1.973,0.22,3.643,1.559,4.287,3.437l0.085,0.246
					C248.802,341.021,248.809,341.342,248.698,341.629z"/>
				<path style="fill:#FF8B7B;" d="M275.076,299.112c-0.377,2.471-0.87,4.795-1.362,7.18c-0.517,2.366-1.073,4.726-1.712,7.074
					c-1.268,4.705-2.743,9.377-4.782,14.06l-0.13,0.297c-0.115,0.263-0.272,0.514-0.444,0.727c-1.404,1.717-2.875,3.058-4.355,4.351
					c-1.475,1.292-3.011,2.425-4.545,3.539c-1.547,1.098-3.115,2.132-4.716,3.109c-1.623,0.961-3.209,1.901-4.927,2.76
					c-1.236,0.617-2.738,0.116-3.355-1.12c-0.496-0.994-0.269-2.16,0.481-2.9l0.031-0.029l3.842-3.775
					c1.279-1.257,2.554-2.507,3.781-3.775c1.24-1.251,2.442-2.53,3.566-3.795c1.117-1.262,2.174-2.563,2.97-3.757l-0.573,1.024
					c0.711-2.068,1.326-4.235,1.926-6.423c0.577-2.2,1.11-4.435,1.63-6.679c0.502-2.251,0.994-4.512,1.465-6.781
					c0.489-2.252,0.921-4.576,1.366-6.772l0.012-0.061c0.547-2.703,3.183-4.451,5.886-3.904
					C273.75,293.995,275.47,296.498,275.076,299.112z"/>
				<g>
					<g>
						<path style="fill:#407BFF;" d="M304.962,296.565c-2.182,5.442-7.986,9.447-16.227,10.804
							c-3.612-0.898-8.567-13.042-8.567-13.042S303.944,281.591,304.962,296.565z"/>
						<path style="opacity:0.4;" d="M304.962,296.565c-2.182,5.442-7.986,9.447-16.227,10.804
							c-3.612-0.898-8.567-13.042-8.567-13.042S303.944,281.591,304.962,296.565z"/>
					</g>
					<g>
						<path style="fill:#407BFF;" d="M268.543,289.718c-3.849,2.368-8.069,7.531-8.675,16.589
							c1.489,3.411,16.458,6.271,16.458,6.271S281.896,283.299,268.543,289.718z"/>
						<path style="opacity:0.4;" d="M268.543,289.718c-3.849,2.368-8.069,7.531-8.675,16.589c1.489,3.411,16.458,6.271,16.458,6.271
							S281.896,283.299,268.543,289.718z"/>
					</g>
				</g>
			</g>
		</g>
		<g>
			<path style="fill:#407BFF;" d="M229.371,376.012h67.832c2.21,0,4.018-1.808,4.018-4.018v0c0-2.21-1.808-4.018-4.018-4.018
				h-67.832c-2.21,0-4.018,1.808-4.018,4.018v0C225.352,374.204,227.161,376.012,229.371,376.012z"/>
			<g>
				<path style="fill:#407BFF;" d="M268.8,356.685h44.231c2.941,0,5.693-2.406,6.117-5.347l6.755-46.904
					c0.423-2.941-1.636-5.347-4.577-5.347h-44.231c-2.941,0-5.693,2.406-6.117,5.347l-6.755,46.904
					C263.799,354.279,265.859,356.685,268.8,356.685z"/>
				<path style="opacity:0.4;fill:#FFFFFF;" d="M270.978,304.435l-6.755,46.904c-0.168,1.166,0.054,2.247,0.567,3.129
					c1.14,1.96,4.137,1.335,4.46-0.909l7.211-50.071c0.356-2.471-2.828-3.8-4.322-1.8
					C271.537,302.491,271.122,303.432,270.978,304.435z"/>
				<polygon style="fill:#263238;" points="307.54,367.975 309.797,367.975 318.408,311.799 316.151,311.799 				"/>
				<polygon style="fill:#263238;" points="273.096,367.975 275.353,367.975 283.964,311.799 281.707,311.799 				"/>
			</g>
			<g>
				<path style="fill:#407BFF;" d="M279.543,376.012h31.039c2.21,0,4.018-1.808,4.018-4.018v0c0-2.21-1.808-4.018-4.018-4.018
					h-31.039c-2.21,0-4.018,1.808-4.018,4.018v0C275.525,374.204,277.333,376.012,279.543,376.012z"/>
				<path style="opacity:0.4;fill:#FFFFFF;" d="M271.506,376.012h-42.135c-2.21,0-4.018-1.808-4.018-4.018v0
					c0-2.21,1.808-4.018,4.018-4.018h42.135c2.21,0,4.019,1.808,4.019,4.018v0C275.525,374.204,273.716,376.012,271.506,376.012z"/>
			</g>
			<polygon style="fill:#263238;" points="262.648,424.398 264.905,424.398 273.516,376.012 271.259,376.012 			"/>
			<polygon style="fill:#263238;" points="223.516,424.398 225.773,424.398 234.384,376.012 232.127,376.012 			"/>
			<polygon style="fill:#263238;" points="277.797,424.398 275.54,424.398 266.929,376.012 269.186,376.012 			"/>
			<polygon style="fill:#263238;" points="316.929,424.398 314.672,424.398 306.061,376.012 308.318,376.012 			"/>
		</g>
	</g>
</g>
<g id="Speech_Bubbles">
	<g>
		<g>
			<path style="fill:#407BFF;" d="M124.355,118.199c-23.272,3.823-39.038,25.788-35.215,49.06
				c3.18,19.353,18.908,33.503,37.498,35.525c-0.695,5.165-2.061,9.361-2.061,9.361s6.587-3.758,10.241-9.266
				c1.123-0.095,2.251-0.221,3.382-0.406c23.272-3.823,39.038-25.789,35.215-49.061
				C169.592,130.142,147.627,114.376,124.355,118.199z"/>
			<path style="opacity:0.5;fill:#FFFFFF;" d="M124.355,118.199c-23.272,3.823-39.038,25.788-35.215,49.06
				c3.18,19.353,18.908,33.503,37.498,35.525c-0.695,5.165-2.061,9.361-2.061,9.361s6.587-3.758,10.241-9.266
				c1.123-0.095,2.251-0.221,3.382-0.406c23.272-3.823,39.038-25.789,35.215-49.061
				C169.592,130.142,147.627,114.376,124.355,118.199z"/>
		</g>
		<path style="fill:#FFFFFF;" d="M136.127,199.391c-21.929,3.603-42.7-11.306-46.303-33.235
			c-3.603-21.928,11.307-42.699,33.235-46.302c21.928-3.603,42.699,11.306,46.302,33.235
			C172.964,175.018,158.055,195.789,136.127,199.391z M123.142,120.355c-21.652,3.557-36.374,24.067-32.817,45.719
			c3.557,21.652,24.067,36.374,45.72,32.816c21.652-3.557,36.373-24.067,32.816-45.719
			C165.303,131.52,144.794,116.798,123.142,120.355z"/>
		<path style="fill:#FFFFFF;" d="M126.382,178.854c-12.76,2.096-24.847-6.579-26.943-19.34c-2.096-12.76,6.579-24.847,19.339-26.943
			c12.76-2.096,24.848,6.579,26.944,19.339C147.818,164.671,139.142,176.757,126.382,178.854z M118.86,133.071
			c-12.484,2.051-20.972,13.876-18.921,26.36c2.051,12.484,13.876,20.972,26.36,18.921c12.485-2.051,20.973-13.876,18.922-26.361
			C143.17,139.508,131.345,131.02,118.86,133.071z"/>
	</g>
	<g>
		<path style="fill:#407BFF;" d="M312.535,108.439c-1.291-3.049-2.925-5.968-4.857-8.673l0.881-0.629
			c1.978,2.771,3.651,5.758,4.973,8.881L312.535,108.439z"/>
		<path style="fill:#407BFF;" d="M301.681,92.922c-5.614-5.248-12.492-9.008-19.891-10.872L282.056,81
			c7.575,1.909,14.617,5.758,20.365,11.131L301.681,92.922z"/>
		<path style="fill:#407BFF;" d="M313.398,126.088c0-23.584-19.118-42.702-42.702-42.702c-23.584,0-42.702,19.118-42.702,42.702
			c0,22.546,17.476,40.998,39.619,42.58c3.364,5.568,9.513,9.574,9.513,9.574s-1.155-4.421-1.525-9.74
			C296.874,166.067,313.398,148.012,313.398,126.088z"/>
		<path style="fill:#FFFFFF;" d="M276.14,122.84c0,3.007-2.437,5.444-5.444,5.444s-5.444-2.437-5.444-5.444
			c0-3.006,2.437-5.444,5.444-5.444S276.14,119.834,276.14,122.84z"/>
		<path style="fill:#FFFFFF;" d="M294.966,129.337c0,3.006-2.437,5.444-5.444,5.444c-3.006,0-5.444-2.437-5.444-5.444
			c0-3.007,2.437-5.444,5.444-5.444C292.529,123.893,294.966,126.33,294.966,129.337z"/>
		<path style="fill:#FFFFFF;" d="M257.313,126.088c0,3.006-2.437,5.444-5.444,5.444c-3.006,0-5.444-2.437-5.444-5.444
			c0-3.006,2.437-5.444,5.444-5.444C254.876,120.645,257.313,123.082,257.313,126.088z"/>
	</g>
	<g>
		<g>
			<path style="fill:#407BFF;" d="M358.966,186.348c-1.583-20.068,13.401-37.62,33.469-39.203
				c20.068-1.583,37.62,13.401,39.203,33.469c1.448,18.355-10.968,34.597-28.453,38.449c-2.727,5.637-7.897,10.044-7.897,10.044
				s0.536-4.157,0.303-9.188C376.62,220.089,360.481,205.551,358.966,186.348z"/>
			<path style="opacity:0.4;" d="M358.966,186.348c-1.583-20.068,13.401-37.62,33.469-39.203
				c20.068-1.583,37.62,13.401,39.203,33.469c1.448,18.355-10.968,34.597-28.453,38.449c-2.727,5.637-7.897,10.044-7.897,10.044
				s0.536-4.157,0.303-9.188C376.62,220.089,360.481,205.551,358.966,186.348z"/>
		</g>
		<path style="fill:#FFFFFF;" d="M383.301,186.642l24.35-1.921c1.21-0.096,2.122-1.164,2.027-2.374l0,0
			c-0.095-1.21-1.164-2.122-2.374-2.026l-24.35,1.921c-1.21,0.096-2.122,1.164-2.026,2.374l0,0
			C381.022,185.825,382.091,186.737,383.301,186.642z"/>
		<path style="fill:#FFFFFF;" d="M383.979,195.235l24.35-1.921c1.21-0.096,2.122-1.164,2.027-2.374l0,0
			c-0.095-1.21-1.164-2.122-2.374-2.027l-24.35,1.921c-1.21,0.096-2.122,1.164-2.026,2.374l0,0
			C381.701,194.419,382.769,195.331,383.979,195.235z"/>
		<path style="fill:#FFFFFF;" d="M382.623,178.048l24.35-1.921c1.21-0.095,2.122-1.164,2.027-2.374l0,0
			c-0.096-1.21-1.164-2.122-2.374-2.027l-24.35,1.921c-1.21,0.095-2.122,1.164-2.027,2.374l0,0
			C380.344,177.232,381.413,178.143,382.623,178.048z"/>
	</g>
</g>
</svg>
